G75*
G70*
%OFA0B0*%
%FSLAX24Y24*%
%IPPOS*%
%LPD*%
%AMOC8*
5,1,8,0,0,1.08239X$1,22.5*
%
%ADD10C,0.0030*%
%ADD11C,0.0020*%
%ADD12C,0.0040*%
%ADD13C,0.0160*%
%ADD14C,0.0059*%
%ADD15R,0.0200X0.0200*%
%ADD16C,0.0050*%
%ADD17C,0.0060*%
%ADD18C,0.0080*%
%ADD19C,0.0010*%
%ADD20R,0.0059X0.0118*%
%ADD21R,0.0118X0.0118*%
%ADD22R,0.3937X0.1496*%
%ADD23R,0.0591X0.0630*%
%ADD24R,0.0551X0.0630*%
D10*
X008083Y027406D02*
X008083Y027496D01*
X008083Y027451D02*
X008308Y027451D01*
X008353Y027406D01*
X008353Y027361D01*
X008308Y027316D01*
X008263Y027593D02*
X008263Y027728D01*
X008218Y027773D01*
X008128Y027773D01*
X008083Y027728D01*
X008083Y027593D01*
X008353Y027593D01*
X008308Y027869D02*
X008353Y027914D01*
X008353Y028004D01*
X008308Y028049D01*
X008218Y028049D01*
X008173Y028004D01*
X008173Y027959D01*
X008218Y027869D01*
X008083Y027869D01*
X008083Y028049D01*
X003685Y028469D02*
X003636Y028469D01*
X003636Y028518D01*
X003685Y028518D01*
X003685Y028469D01*
X003685Y028614D02*
X003636Y028614D01*
X003636Y028663D01*
X003685Y028663D01*
X003685Y028614D01*
X003535Y028614D02*
X003342Y028614D01*
X003487Y028759D01*
X003487Y028469D01*
X003241Y028614D02*
X003241Y028711D01*
X003192Y028759D01*
X003047Y028759D01*
X003047Y028469D01*
X003047Y028566D02*
X003192Y028566D01*
X003241Y028614D01*
X002946Y028759D02*
X002849Y028759D01*
X002898Y028759D02*
X002898Y028518D01*
X002849Y028469D01*
X002801Y028469D01*
X002753Y028518D01*
X014020Y028935D02*
X014020Y029305D01*
X014020Y029120D02*
X014267Y029120D01*
X014389Y028996D02*
X014451Y028935D01*
X014636Y028935D01*
X014636Y029120D01*
X014574Y029182D01*
X014451Y029182D01*
X014451Y029058D02*
X014636Y029058D01*
X014757Y029058D02*
X014881Y029182D01*
X014942Y029182D01*
X015064Y029120D02*
X015126Y029182D01*
X015311Y029182D01*
X015432Y029182D02*
X015432Y028996D01*
X015494Y028935D01*
X015556Y028996D01*
X015617Y028935D01*
X015679Y028996D01*
X015679Y029182D01*
X015862Y029182D02*
X015986Y029182D01*
X016048Y029120D01*
X016048Y028935D01*
X015862Y028935D01*
X015801Y028996D01*
X015862Y029058D01*
X016048Y029058D01*
X016169Y029058D02*
X016292Y029182D01*
X016354Y029182D01*
X016476Y029120D02*
X016538Y029182D01*
X016661Y029182D01*
X016723Y029120D01*
X016723Y029058D01*
X016476Y029058D01*
X016476Y028996D02*
X016476Y029120D01*
X016476Y028996D02*
X016538Y028935D01*
X016661Y028935D01*
X016169Y028935D02*
X016169Y029182D01*
X015311Y029305D02*
X015311Y028935D01*
X015126Y028935D01*
X015064Y028996D01*
X015064Y029120D01*
X014757Y029182D02*
X014757Y028935D01*
X014451Y029058D02*
X014389Y028996D01*
X014267Y028935D02*
X014267Y029305D01*
X017213Y029243D02*
X017213Y028996D01*
X017274Y028935D01*
X017398Y028935D01*
X017459Y028996D01*
X017459Y029120D01*
X017336Y029120D01*
X017459Y029243D02*
X017398Y029305D01*
X017274Y029305D01*
X017213Y029243D01*
X017581Y029182D02*
X017581Y028935D01*
X017581Y029058D02*
X017704Y029182D01*
X017766Y029182D01*
X017888Y029120D02*
X017888Y028996D01*
X017949Y028935D01*
X018073Y028935D01*
X018135Y028996D01*
X018135Y029120D01*
X018073Y029182D01*
X017949Y029182D01*
X017888Y029120D01*
X018256Y029182D02*
X018256Y028996D01*
X018318Y028935D01*
X018503Y028935D01*
X018503Y029182D01*
X018624Y029182D02*
X018624Y028811D01*
X018624Y028935D02*
X018810Y028935D01*
X018871Y028996D01*
X018871Y029120D01*
X018810Y029182D01*
X018624Y029182D01*
X019361Y029305D02*
X019361Y028935D01*
X019608Y028935D01*
X019791Y028996D02*
X019853Y028935D01*
X019791Y028996D02*
X019791Y029243D01*
X019729Y029182D02*
X019853Y029182D01*
X019975Y029120D02*
X020037Y029182D01*
X020222Y029182D01*
X020222Y029305D02*
X020222Y028935D01*
X020037Y028935D01*
X019975Y028996D01*
X019975Y029120D01*
D11*
X020035Y028532D02*
X019848Y028532D01*
X019759Y028486D02*
X019759Y028345D01*
X019848Y028345D02*
X020035Y028345D01*
X020035Y028532D02*
X019848Y028345D01*
X019759Y028486D02*
X019712Y028532D01*
X019619Y028532D01*
X019572Y028486D01*
X019572Y028626D02*
X019572Y028345D01*
X019483Y028345D02*
X019483Y028626D01*
X019389Y028532D01*
X019296Y028626D01*
X019296Y028345D01*
X019207Y028392D02*
X019160Y028345D01*
X019066Y028345D01*
X019020Y028392D01*
X018930Y028392D02*
X018884Y028345D01*
X018790Y028345D01*
X018744Y028392D01*
X018654Y028486D02*
X018467Y028486D01*
X018607Y028626D01*
X018607Y028345D01*
X018837Y028486D02*
X018884Y028486D01*
X018930Y028439D01*
X018930Y028392D01*
X018884Y028486D02*
X018930Y028532D01*
X018930Y028579D01*
X018884Y028626D01*
X018790Y028626D01*
X018744Y028579D01*
X019020Y028579D02*
X019066Y028626D01*
X019160Y028626D01*
X019207Y028579D01*
X019207Y028532D01*
X019160Y028486D01*
X019207Y028439D01*
X019207Y028392D01*
X019160Y028486D02*
X019113Y028486D01*
X018378Y028626D02*
X018191Y028626D01*
X018191Y028345D01*
X018102Y028345D02*
X018008Y028439D01*
X018055Y028439D02*
X017915Y028439D01*
X017915Y028345D02*
X017915Y028626D01*
X018055Y028626D01*
X018102Y028579D01*
X018102Y028486D01*
X018055Y028439D01*
X018191Y028486D02*
X018284Y028486D01*
X017549Y028486D02*
X017502Y028532D01*
X017409Y028532D01*
X017362Y028486D01*
X017362Y028392D01*
X017409Y028345D01*
X017502Y028345D01*
X017549Y028392D01*
X017549Y028486D01*
X017272Y028532D02*
X017178Y028532D01*
X017225Y028579D02*
X017225Y028392D01*
X017272Y028345D01*
X016811Y028345D02*
X016718Y028345D01*
X016765Y028345D02*
X016765Y028532D01*
X016718Y028532D01*
X016765Y028626D02*
X016765Y028672D01*
X016628Y028626D02*
X016442Y028626D01*
X016442Y028345D01*
X016351Y028345D02*
X016257Y028345D01*
X016304Y028345D02*
X016304Y028532D01*
X016257Y028532D01*
X016304Y028626D02*
X016304Y028672D01*
X016168Y028626D02*
X016168Y028345D01*
X016075Y028439D01*
X015981Y028345D01*
X015981Y028626D01*
X015616Y028626D02*
X015616Y028345D01*
X015475Y028345D01*
X015429Y028392D01*
X015429Y028486D01*
X015475Y028532D01*
X015616Y028532D01*
X015291Y028532D02*
X015291Y028345D01*
X015245Y028345D02*
X015338Y028345D01*
X015155Y028392D02*
X015155Y028486D01*
X015108Y028532D01*
X015015Y028532D01*
X014968Y028486D01*
X014968Y028392D01*
X015015Y028345D01*
X015108Y028345D01*
X015155Y028392D01*
X015245Y028532D02*
X015291Y028532D01*
X015291Y028626D02*
X015291Y028672D01*
X014878Y028532D02*
X014832Y028532D01*
X014738Y028439D01*
X014738Y028532D02*
X014738Y028345D01*
X014649Y028345D02*
X014509Y028345D01*
X014462Y028392D01*
X014462Y028486D01*
X014509Y028532D01*
X014649Y028532D01*
X014649Y028626D02*
X014649Y028345D01*
X014372Y028532D02*
X014325Y028532D01*
X014232Y028439D01*
X014232Y028532D02*
X014232Y028345D01*
X014141Y028345D02*
X014048Y028345D01*
X014094Y028345D02*
X014094Y028626D01*
X014048Y028626D02*
X014141Y028626D01*
X016442Y028486D02*
X016535Y028486D01*
X011224Y028676D02*
X011224Y028956D01*
X011037Y028956D02*
X011224Y028676D01*
X011037Y028676D02*
X011037Y028956D01*
X010947Y028956D02*
X010853Y028956D01*
X010900Y028956D02*
X010900Y028676D01*
X010853Y028676D02*
X010947Y028676D01*
X010764Y028676D02*
X010670Y028769D01*
X010717Y028769D02*
X010577Y028769D01*
X010577Y028676D02*
X010577Y028956D01*
X010717Y028956D01*
X010764Y028909D01*
X010764Y028816D01*
X010717Y028769D01*
X010293Y028769D02*
X010293Y028722D01*
X010246Y028676D01*
X010153Y028676D01*
X010106Y028722D01*
X010153Y028816D02*
X010246Y028816D01*
X010293Y028769D01*
X010293Y028909D02*
X010246Y028956D01*
X010153Y028956D01*
X010106Y028909D01*
X010106Y028862D01*
X010153Y028816D01*
X010016Y028956D02*
X009830Y028956D01*
X009923Y028956D02*
X009923Y028676D01*
X009740Y028722D02*
X009693Y028676D01*
X009600Y028676D01*
X009553Y028722D01*
X009553Y028909D01*
X009600Y028956D01*
X009693Y028956D01*
X009740Y028909D01*
X009308Y028909D02*
X009262Y028956D01*
X009168Y028956D01*
X009122Y028909D01*
X009122Y028862D01*
X009168Y028816D01*
X009262Y028816D01*
X009308Y028769D01*
X009308Y028722D01*
X009262Y028676D01*
X009168Y028676D01*
X009122Y028722D01*
X008939Y028676D02*
X008939Y028956D01*
X009032Y028956D02*
X008845Y028956D01*
X008756Y028909D02*
X008756Y028816D01*
X008709Y028769D01*
X008569Y028769D01*
X008569Y028676D02*
X008569Y028956D01*
X008709Y028956D01*
X008756Y028909D01*
X008663Y028769D02*
X008756Y028676D01*
X004319Y027988D02*
X004319Y027895D01*
X004273Y027848D01*
X004132Y027848D01*
X004043Y027848D02*
X004043Y027801D01*
X003996Y027755D01*
X003856Y027755D01*
X003856Y028035D01*
X003996Y028035D01*
X004043Y027988D01*
X004043Y027941D01*
X003996Y027895D01*
X003856Y027895D01*
X003767Y027848D02*
X003767Y027801D01*
X003720Y027755D01*
X003627Y027755D01*
X003580Y027801D01*
X003491Y027801D02*
X003491Y028035D01*
X003580Y027988D02*
X003580Y027941D01*
X003627Y027895D01*
X003720Y027895D01*
X003767Y027848D01*
X003767Y027988D02*
X003720Y028035D01*
X003627Y028035D01*
X003580Y027988D01*
X003491Y027801D02*
X003444Y027755D01*
X003350Y027755D01*
X003304Y027801D01*
X003304Y028035D01*
X003214Y027895D02*
X003028Y027895D01*
X002938Y027755D02*
X002751Y027755D01*
X002845Y027755D02*
X002845Y028035D01*
X002751Y027941D01*
X002798Y027635D02*
X002751Y027588D01*
X002798Y027635D02*
X002891Y027635D01*
X002938Y027588D01*
X002938Y027541D01*
X002751Y027355D01*
X002938Y027355D01*
X002891Y027235D02*
X002938Y027188D01*
X002938Y027141D01*
X002891Y027095D01*
X002938Y027048D01*
X002938Y027001D01*
X002891Y026955D01*
X002798Y026955D01*
X002751Y027001D01*
X002845Y027095D02*
X002891Y027095D01*
X003028Y027095D02*
X003214Y027095D01*
X003304Y027235D02*
X003397Y027235D01*
X003350Y027235D02*
X003350Y026955D01*
X003304Y026955D02*
X003397Y026955D01*
X003488Y026955D02*
X003675Y027141D01*
X003675Y027188D01*
X003628Y027235D01*
X003535Y027235D01*
X003488Y027188D01*
X003444Y027355D02*
X003491Y027401D01*
X003491Y027635D01*
X003580Y027588D02*
X003580Y027541D01*
X003627Y027495D01*
X003720Y027495D01*
X003767Y027448D01*
X003767Y027401D01*
X003720Y027355D01*
X003627Y027355D01*
X003580Y027401D01*
X003444Y027355D02*
X003350Y027355D01*
X003304Y027401D01*
X003304Y027635D01*
X003214Y027495D02*
X003028Y027495D01*
X002891Y027235D02*
X002798Y027235D01*
X002751Y027188D01*
X002891Y026835D02*
X002751Y026695D01*
X002938Y026695D01*
X003028Y026695D02*
X003214Y026695D01*
X003304Y026835D02*
X003397Y026835D01*
X003350Y026835D02*
X003350Y026555D01*
X003304Y026555D02*
X003397Y026555D01*
X003488Y026555D02*
X003675Y026741D01*
X003675Y026788D01*
X003628Y026835D01*
X003535Y026835D01*
X003488Y026788D01*
X003488Y026955D02*
X003675Y026955D01*
X003764Y027001D02*
X003811Y026955D01*
X003904Y026955D01*
X003951Y027001D01*
X003951Y027048D01*
X003904Y027095D01*
X003811Y027095D01*
X003764Y027141D01*
X003764Y027188D01*
X003811Y027235D01*
X003904Y027235D01*
X003951Y027188D01*
X004040Y027235D02*
X004040Y026955D01*
X004181Y026955D01*
X004227Y027001D01*
X004227Y027188D01*
X004181Y027235D01*
X004040Y027235D01*
X003996Y027355D02*
X004043Y027401D01*
X004043Y027448D01*
X003996Y027495D01*
X003856Y027495D01*
X003767Y027588D02*
X003720Y027635D01*
X003627Y027635D01*
X003580Y027588D01*
X003856Y027635D02*
X003856Y027355D01*
X003996Y027355D01*
X004132Y027355D02*
X004132Y027635D01*
X004226Y027541D01*
X004319Y027635D01*
X004319Y027355D01*
X004043Y027541D02*
X003996Y027495D01*
X004043Y027541D02*
X004043Y027588D01*
X003996Y027635D01*
X003856Y027635D01*
X004043Y027848D02*
X003996Y027895D01*
X004132Y027755D02*
X004132Y028035D01*
X004273Y028035D01*
X004319Y027988D01*
X004227Y026835D02*
X004040Y026648D01*
X004087Y026695D02*
X004227Y026555D01*
X004040Y026555D02*
X004040Y026835D01*
X003951Y026788D02*
X003904Y026835D01*
X003811Y026835D01*
X003764Y026788D01*
X003764Y026601D01*
X003811Y026555D01*
X003904Y026555D01*
X003951Y026601D01*
X003996Y026435D02*
X003856Y026435D01*
X003856Y026155D01*
X003996Y026155D01*
X004043Y026201D01*
X004043Y026388D01*
X003996Y026435D01*
X003767Y026435D02*
X003767Y026155D01*
X003580Y026435D01*
X003580Y026155D01*
X003491Y026201D02*
X003491Y026295D01*
X003397Y026295D01*
X003304Y026388D02*
X003304Y026201D01*
X003350Y026155D01*
X003444Y026155D01*
X003491Y026201D01*
X003491Y026388D02*
X003444Y026435D01*
X003350Y026435D01*
X003304Y026388D01*
X003214Y026295D02*
X003028Y026295D01*
X002938Y026295D02*
X002938Y026201D01*
X002891Y026155D01*
X002798Y026155D01*
X002751Y026201D01*
X002751Y026295D02*
X002845Y026341D01*
X002891Y026341D01*
X002938Y026295D01*
X002938Y026435D02*
X002751Y026435D01*
X002751Y026295D01*
X002891Y026555D02*
X002891Y026835D01*
X003488Y026555D02*
X003675Y026555D01*
X015654Y020706D02*
X015654Y020566D01*
X015934Y020566D01*
X015934Y020706D01*
X015888Y020753D01*
X015701Y020753D01*
X015654Y020706D01*
X015654Y020477D02*
X015654Y020290D01*
X015654Y020383D02*
X015934Y020383D01*
X016508Y020132D02*
X016508Y019945D01*
X016555Y019898D01*
X016648Y019898D01*
X016695Y019945D01*
X016695Y020038D01*
X016602Y020038D01*
X016695Y020132D02*
X016648Y020179D01*
X016555Y020179D01*
X016508Y020132D01*
X016785Y020179D02*
X016785Y019898D01*
X016971Y019898D02*
X016785Y020179D01*
X016971Y020179D02*
X016971Y019898D01*
X017061Y019898D02*
X017061Y020179D01*
X017201Y020179D01*
X017248Y020132D01*
X017248Y019945D01*
X017201Y019898D01*
X017061Y019898D01*
X017531Y019999D02*
X017624Y019906D01*
X017718Y019999D01*
X017718Y020186D01*
X017807Y020139D02*
X017807Y019952D01*
X017854Y019906D01*
X017947Y019906D01*
X017994Y019952D01*
X018083Y019952D02*
X018130Y019906D01*
X018223Y019906D01*
X018270Y019952D01*
X018083Y019952D02*
X018083Y020139D01*
X018130Y020186D01*
X018223Y020186D01*
X018270Y020139D01*
X018513Y020189D02*
X018513Y019908D01*
X018653Y019908D01*
X018700Y019955D01*
X018700Y020142D01*
X018653Y020189D01*
X018513Y020189D01*
X018789Y020095D02*
X018789Y019908D01*
X018789Y020048D02*
X018976Y020048D01*
X018976Y020095D02*
X018976Y019908D01*
X019159Y019908D02*
X019159Y020189D01*
X019252Y020189D02*
X019065Y020189D01*
X018976Y020095D02*
X018882Y020189D01*
X018789Y020095D01*
X019342Y020095D02*
X019342Y019908D01*
X019342Y020048D02*
X019528Y020048D01*
X019528Y020095D02*
X019528Y019908D01*
X019528Y020095D02*
X019435Y020189D01*
X019342Y020095D01*
X019952Y020984D02*
X020046Y021077D01*
X020139Y020984D01*
X020139Y021264D01*
X020229Y021171D02*
X020275Y021171D01*
X020275Y020984D01*
X020229Y020984D02*
X020322Y020984D01*
X020413Y020984D02*
X020413Y021264D01*
X020553Y021264D01*
X020599Y021217D01*
X020599Y021124D01*
X020553Y021077D01*
X020413Y021077D01*
X020506Y021077D02*
X020599Y020984D01*
X020689Y020984D02*
X020689Y021264D01*
X020876Y021264D01*
X020965Y021124D02*
X021152Y021124D01*
X021241Y021217D02*
X021288Y021264D01*
X021381Y021264D01*
X021428Y021217D01*
X021428Y021171D01*
X021381Y021124D01*
X021428Y021077D01*
X021428Y021031D01*
X021381Y020984D01*
X021288Y020984D01*
X021241Y021031D01*
X021335Y021124D02*
X021381Y021124D01*
X021518Y021217D02*
X021564Y021264D01*
X021658Y021264D01*
X021704Y021217D01*
X021704Y021171D01*
X021658Y021124D01*
X021704Y021077D01*
X021704Y021031D01*
X021658Y020984D01*
X021564Y020984D01*
X021518Y021031D01*
X021611Y021124D02*
X021658Y021124D01*
X021105Y020984D02*
X021105Y021264D01*
X020965Y021124D01*
X020782Y021124D02*
X020689Y021124D01*
X020275Y021264D02*
X020275Y021311D01*
X019952Y021264D02*
X019952Y020984D01*
X017994Y020139D02*
X017947Y020186D01*
X017854Y020186D01*
X017807Y020139D01*
X017531Y020186D02*
X017531Y019999D01*
X015956Y019684D02*
X015910Y019731D01*
X015723Y019731D01*
X015676Y019684D01*
X015676Y019544D01*
X015956Y019544D01*
X015956Y019684D01*
X015956Y019454D02*
X015863Y019361D01*
X015863Y019408D02*
X015863Y019268D01*
X015956Y019268D02*
X015676Y019268D01*
X015676Y019408D01*
X015723Y019454D01*
X015816Y019454D01*
X015863Y019408D01*
X015910Y018822D02*
X015723Y018822D01*
X015676Y018776D01*
X015676Y018636D01*
X015956Y018636D01*
X015956Y018776D01*
X015910Y018822D01*
X015956Y018546D02*
X015676Y018359D01*
X015723Y018270D02*
X015676Y018223D01*
X015676Y018083D01*
X015956Y018083D01*
X015863Y018083D02*
X015863Y018223D01*
X015816Y018270D01*
X015723Y018270D01*
X015863Y018177D02*
X015956Y018270D01*
X015956Y018359D02*
X015676Y018546D01*
X015730Y017880D02*
X015683Y017834D01*
X015683Y017694D01*
X015964Y017694D01*
X015964Y017834D01*
X015917Y017880D01*
X015730Y017880D01*
X015683Y017604D02*
X015964Y017417D01*
X015964Y017234D02*
X015683Y017234D01*
X015683Y017141D02*
X015683Y017328D01*
X015683Y017417D02*
X015964Y017604D01*
X015910Y016792D02*
X015723Y016792D01*
X015676Y016745D01*
X015676Y016605D01*
X015956Y016605D01*
X015956Y016745D01*
X015910Y016792D01*
X015956Y016516D02*
X015676Y016516D01*
X015676Y016329D02*
X015956Y016516D01*
X015956Y016329D02*
X015676Y016329D01*
X015723Y016240D02*
X015676Y016193D01*
X015676Y016100D01*
X015723Y016053D01*
X015910Y016053D01*
X015956Y016100D01*
X015956Y016193D01*
X015910Y016240D01*
X015816Y016240D01*
X015816Y016146D01*
X016425Y016696D02*
X016518Y016603D01*
X016612Y016696D01*
X016612Y016883D01*
X016701Y016837D02*
X016701Y016650D01*
X016748Y016603D01*
X016841Y016603D01*
X016888Y016650D01*
X016977Y016650D02*
X017024Y016603D01*
X017117Y016603D01*
X017164Y016650D01*
X017164Y016837D02*
X017117Y016883D01*
X017024Y016883D01*
X016977Y016837D01*
X016977Y016650D01*
X016888Y016837D02*
X016841Y016883D01*
X016748Y016883D01*
X016701Y016837D01*
X016425Y016883D02*
X016425Y016696D01*
X017446Y016657D02*
X017493Y016610D01*
X017586Y016610D01*
X017633Y016657D01*
X017633Y016750D01*
X017540Y016750D01*
X017633Y016844D02*
X017586Y016891D01*
X017493Y016891D01*
X017446Y016844D01*
X017446Y016657D01*
X017722Y016610D02*
X017722Y016891D01*
X017909Y016610D01*
X017909Y016891D01*
X017999Y016891D02*
X017999Y016610D01*
X018139Y016610D01*
X018185Y016657D01*
X018185Y016844D01*
X018139Y016891D01*
X017999Y016891D01*
X018516Y016897D02*
X018516Y016617D01*
X018656Y016617D01*
X018703Y016663D01*
X018703Y016850D01*
X018656Y016897D01*
X018516Y016897D01*
X018792Y016804D02*
X018792Y016617D01*
X018792Y016757D02*
X018979Y016757D01*
X018979Y016804D02*
X018979Y016617D01*
X019162Y016617D02*
X019162Y016897D01*
X019255Y016897D02*
X019068Y016897D01*
X018979Y016804D02*
X018885Y016897D01*
X018792Y016804D01*
X019345Y016804D02*
X019345Y016617D01*
X019345Y016757D02*
X019531Y016757D01*
X019531Y016804D02*
X019531Y016617D01*
X019531Y016804D02*
X019438Y016897D01*
X019345Y016804D01*
X019770Y016806D02*
X019770Y016619D01*
X019770Y016760D02*
X019957Y016760D01*
X019957Y016806D02*
X019957Y016619D01*
X020046Y016619D02*
X020046Y016900D01*
X020233Y016619D01*
X020233Y016900D01*
X020323Y016900D02*
X020509Y016900D01*
X020416Y016900D02*
X020416Y016619D01*
X019957Y016806D02*
X019864Y016900D01*
X019770Y016806D01*
X013086Y005732D02*
X013086Y005511D01*
X013159Y005511D02*
X013012Y005511D01*
X012938Y005548D02*
X012938Y005585D01*
X012901Y005622D01*
X012828Y005622D01*
X012791Y005658D01*
X012791Y005695D01*
X012828Y005732D01*
X012901Y005732D01*
X012938Y005695D01*
X013012Y005658D02*
X013086Y005732D01*
X012865Y005768D02*
X012865Y005475D01*
X012901Y005511D02*
X012938Y005548D01*
X012901Y005511D02*
X012828Y005511D01*
X012791Y005548D01*
X012717Y005548D02*
X012717Y005732D01*
X012570Y005732D02*
X012570Y005548D01*
X012607Y005511D01*
X012680Y005511D01*
X012717Y005548D01*
X005679Y005511D02*
X005532Y005511D01*
X005679Y005658D01*
X005679Y005695D01*
X005642Y005732D01*
X005569Y005732D01*
X005532Y005695D01*
X005458Y005695D02*
X005421Y005732D01*
X005348Y005732D01*
X005311Y005695D01*
X005311Y005658D01*
X005348Y005622D01*
X005421Y005622D01*
X005458Y005585D01*
X005458Y005548D01*
X005421Y005511D01*
X005348Y005511D01*
X005311Y005548D01*
X005237Y005548D02*
X005237Y005732D01*
X005090Y005732D02*
X005090Y005548D01*
X005127Y005511D01*
X005200Y005511D01*
X005237Y005548D01*
X005384Y005475D02*
X005384Y005768D01*
X001153Y005280D02*
X001153Y005186D01*
X001106Y005140D01*
X001106Y005048D02*
X001153Y005048D01*
X001153Y005002D01*
X001106Y005002D01*
X001106Y005048D01*
X000966Y004912D02*
X001153Y004819D01*
X000966Y004725D01*
X001013Y004636D02*
X001059Y004636D01*
X001059Y004449D01*
X001013Y004449D02*
X000966Y004496D01*
X000966Y004589D01*
X001013Y004636D01*
X001153Y004589D02*
X001153Y004496D01*
X001106Y004449D01*
X001013Y004449D01*
X001013Y004360D02*
X001059Y004313D01*
X001059Y004173D01*
X001059Y004266D02*
X001153Y004360D01*
X001013Y004360D02*
X000919Y004360D01*
X000872Y004313D01*
X000872Y004173D01*
X001153Y004173D01*
X000919Y005140D02*
X000872Y005186D01*
X000872Y005280D01*
X000919Y005326D01*
X000966Y005326D01*
X001013Y005280D01*
X001059Y005326D01*
X001106Y005326D01*
X001153Y005280D01*
X001013Y005280D02*
X001013Y005233D01*
D12*
X000911Y006388D02*
X000451Y006388D01*
X000451Y006619D01*
X000527Y006695D01*
X000681Y006695D01*
X000758Y006619D01*
X000758Y006388D01*
X000758Y006542D02*
X000911Y006695D01*
X000834Y006849D02*
X000911Y006926D01*
X000911Y007079D01*
X000834Y007156D01*
X000681Y007156D01*
X000604Y007079D01*
X000604Y007002D01*
X000681Y006849D01*
X000451Y006849D01*
X000451Y007156D01*
X001930Y007605D02*
X002391Y007605D01*
X002391Y007912D01*
X002391Y008065D02*
X002084Y008065D01*
X001930Y008219D01*
X002084Y008372D01*
X002391Y008372D01*
X002391Y008526D02*
X001930Y008526D01*
X002391Y008833D01*
X001930Y008833D01*
X002161Y008372D02*
X002161Y008065D01*
X003622Y009107D02*
X003622Y009337D01*
X003698Y009414D01*
X003852Y009414D01*
X003928Y009337D01*
X003928Y009107D01*
X003928Y009260D02*
X004082Y009414D01*
X004082Y009567D02*
X004005Y009567D01*
X003698Y009874D01*
X003622Y009874D01*
X003622Y009567D01*
X003622Y009107D02*
X004082Y009107D01*
X004649Y009133D02*
X004649Y009363D01*
X004726Y009439D01*
X004880Y009439D01*
X004956Y009363D01*
X004956Y009133D01*
X004956Y009286D02*
X005110Y009439D01*
X005033Y009593D02*
X004956Y009593D01*
X004880Y009670D01*
X004880Y009823D01*
X004956Y009900D01*
X005033Y009900D01*
X005110Y009823D01*
X005110Y009670D01*
X005033Y009593D01*
X004880Y009670D02*
X004803Y009593D01*
X004726Y009593D01*
X004649Y009670D01*
X004649Y009823D01*
X004726Y009900D01*
X004803Y009900D01*
X004880Y009823D01*
X005110Y009133D02*
X004649Y009133D01*
X006214Y009414D02*
X006214Y009645D01*
X006290Y009721D01*
X006444Y009721D01*
X006521Y009645D01*
X006521Y009414D01*
X006674Y009414D02*
X006214Y009414D01*
X006521Y009568D02*
X006674Y009721D01*
X006597Y009875D02*
X006674Y009952D01*
X006674Y010105D01*
X006597Y010182D01*
X006290Y010182D01*
X006214Y010105D01*
X006214Y009952D01*
X006290Y009875D01*
X006367Y009875D01*
X006444Y009952D01*
X006444Y010182D01*
X007620Y010224D02*
X007620Y010071D01*
X007697Y009994D01*
X008004Y009994D01*
X007697Y010301D01*
X008004Y010301D01*
X008080Y010224D01*
X008080Y010071D01*
X008004Y009994D01*
X008080Y009840D02*
X008080Y009534D01*
X008080Y009687D02*
X007620Y009687D01*
X007774Y009534D01*
X007850Y009380D02*
X007927Y009303D01*
X007927Y009073D01*
X008080Y009073D02*
X007620Y009073D01*
X007620Y009303D01*
X007697Y009380D01*
X007850Y009380D01*
X007927Y009227D02*
X008080Y009380D01*
X007620Y010224D02*
X007697Y010301D01*
X006551Y011736D02*
X006628Y011812D01*
X006628Y011966D01*
X006551Y012043D01*
X006628Y012196D02*
X006628Y012503D01*
X006628Y012350D02*
X006167Y012350D01*
X006321Y012196D01*
X006244Y012043D02*
X006167Y011966D01*
X006167Y011812D01*
X006244Y011736D01*
X006551Y011736D01*
X006628Y012657D02*
X006321Y012963D01*
X006244Y012963D01*
X006167Y012887D01*
X006167Y012733D01*
X006244Y012657D01*
X006628Y012657D02*
X006628Y012963D01*
X003723Y012964D02*
X003263Y012964D01*
X003493Y012734D01*
X003493Y013041D01*
X003723Y012580D02*
X003723Y012273D01*
X003723Y012427D02*
X003263Y012427D01*
X003416Y012273D01*
X003339Y012120D02*
X003263Y012043D01*
X003263Y011890D01*
X003339Y011813D01*
X003646Y011813D01*
X003723Y011890D01*
X003723Y012043D01*
X003646Y012120D01*
X009569Y010347D02*
X009646Y010424D01*
X009723Y010424D01*
X009799Y010347D01*
X009876Y010424D01*
X009953Y010424D01*
X010029Y010347D01*
X010029Y010194D01*
X009953Y010117D01*
X010029Y009964D02*
X010029Y009657D01*
X010029Y009810D02*
X009569Y009810D01*
X009723Y009657D01*
X009799Y009503D02*
X009646Y009503D01*
X009569Y009427D01*
X009569Y009196D01*
X010029Y009196D01*
X009876Y009196D02*
X009876Y009427D01*
X009799Y009503D01*
X009876Y009350D02*
X010029Y009503D01*
X010539Y009518D02*
X010616Y009595D01*
X010769Y009595D01*
X010846Y009518D01*
X010846Y009288D01*
X010846Y009441D02*
X010999Y009595D01*
X010999Y009748D02*
X010999Y010055D01*
X010999Y009902D02*
X010539Y009902D01*
X010693Y009748D01*
X010539Y009518D02*
X010539Y009288D01*
X010999Y009288D01*
X011599Y009654D02*
X011676Y009577D01*
X011983Y009577D01*
X012059Y009654D01*
X012059Y009807D01*
X011983Y009884D01*
X011983Y010037D02*
X011906Y010037D01*
X011829Y010114D01*
X011829Y010267D01*
X011906Y010344D01*
X011983Y010344D01*
X012059Y010267D01*
X012059Y010114D01*
X011983Y010037D01*
X011829Y010114D02*
X011753Y010037D01*
X011676Y010037D01*
X011599Y010114D01*
X011599Y010267D01*
X011676Y010344D01*
X011753Y010344D01*
X011829Y010267D01*
X011676Y009884D02*
X011599Y009807D01*
X011599Y009654D01*
X010999Y010439D02*
X010539Y010439D01*
X010769Y010208D01*
X010769Y010515D01*
X009799Y010347D02*
X009799Y010271D01*
X009646Y010117D02*
X009569Y010194D01*
X009569Y010347D01*
X012589Y010555D02*
X012666Y010402D01*
X012819Y010248D01*
X012819Y010479D01*
X012896Y010555D01*
X012973Y010555D01*
X013049Y010479D01*
X013049Y010325D01*
X012973Y010248D01*
X012819Y010248D01*
X013049Y010095D02*
X013049Y009788D01*
X013049Y009635D02*
X012896Y009481D01*
X012896Y009558D02*
X012896Y009328D01*
X013049Y009328D02*
X012589Y009328D01*
X012589Y009558D01*
X012666Y009635D01*
X012819Y009635D01*
X012896Y009558D01*
X012743Y009788D02*
X012589Y009942D01*
X013049Y009942D01*
X013649Y009840D02*
X014109Y009840D01*
X014109Y009687D02*
X014109Y009994D01*
X014033Y010147D02*
X014109Y010224D01*
X014109Y010377D01*
X014033Y010454D01*
X013879Y010454D01*
X013803Y010377D01*
X013803Y010301D01*
X013879Y010147D01*
X013649Y010147D01*
X013649Y010454D01*
X013649Y009840D02*
X013803Y009687D01*
X013879Y009533D02*
X013956Y009457D01*
X013956Y009226D01*
X014109Y009226D02*
X013649Y009226D01*
X013649Y009457D01*
X013726Y009533D01*
X013879Y009533D01*
X013956Y009380D02*
X014109Y009533D01*
X014609Y009734D02*
X014686Y009657D01*
X014993Y009657D01*
X015069Y009734D01*
X015069Y009887D01*
X014993Y009964D01*
X014993Y010117D02*
X015069Y010194D01*
X015069Y010347D01*
X014993Y010424D01*
X014916Y010424D01*
X014839Y010347D01*
X014839Y010271D01*
X014839Y010347D02*
X014763Y010424D01*
X014686Y010424D01*
X014609Y010347D01*
X014609Y010194D01*
X014686Y010117D01*
X014686Y009964D02*
X014609Y009887D01*
X014609Y009734D01*
X016300Y008872D02*
X016761Y008872D01*
X016300Y008565D01*
X016761Y008565D01*
X016761Y008411D02*
X016454Y008411D01*
X016300Y008258D01*
X016454Y008105D01*
X016761Y008105D01*
X016761Y007951D02*
X016300Y007951D01*
X016531Y008105D02*
X016531Y008411D01*
X016761Y007951D02*
X016607Y007798D01*
X016761Y007644D01*
X016300Y007644D01*
X017039Y007319D02*
X017499Y007319D01*
X017499Y007472D02*
X017499Y007165D01*
X017499Y007012D02*
X017346Y006858D01*
X017346Y006935D02*
X017346Y006705D01*
X017499Y006705D02*
X017039Y006705D01*
X017039Y006935D01*
X017115Y007012D01*
X017269Y007012D01*
X017346Y006935D01*
X017192Y007165D02*
X017039Y007319D01*
X019179Y007544D02*
X019179Y007775D01*
X019255Y007851D01*
X019409Y007851D01*
X019486Y007775D01*
X019486Y007544D01*
X019639Y007544D02*
X019179Y007544D01*
X019179Y008005D02*
X019639Y008005D01*
X019486Y008158D01*
X019639Y008312D01*
X019179Y008312D01*
X019179Y008465D02*
X019179Y008695D01*
X019255Y008772D01*
X019409Y008772D01*
X019486Y008695D01*
X019486Y008465D01*
X019639Y008465D02*
X019179Y008465D01*
X019486Y008619D02*
X019639Y008772D01*
X019989Y008456D02*
X019989Y006676D01*
X021489Y006676D02*
X021489Y008456D01*
X020916Y009056D02*
X020610Y009056D01*
X020763Y009056D02*
X020763Y009516D01*
X020610Y009363D01*
X020456Y009439D02*
X020379Y009516D01*
X020149Y009516D01*
X020149Y009056D01*
X020379Y009056D01*
X020456Y009132D01*
X020456Y009439D01*
X021254Y010822D02*
X021561Y010822D01*
X021638Y010899D01*
X021638Y011053D01*
X021561Y011129D01*
X021638Y011283D02*
X021331Y011590D01*
X021254Y011590D01*
X021177Y011513D01*
X021177Y011359D01*
X021254Y011283D01*
X021254Y011129D02*
X021177Y011053D01*
X021177Y010899D01*
X021254Y010822D01*
X021638Y011283D02*
X021638Y011590D01*
X017421Y011639D02*
X017421Y011333D01*
X017421Y011486D02*
X016961Y011486D01*
X017114Y011333D01*
X017037Y011179D02*
X016961Y011102D01*
X016961Y010949D01*
X017037Y010872D01*
X017344Y010872D01*
X017421Y010949D01*
X017421Y011102D01*
X017344Y011179D01*
X009587Y002933D02*
X009587Y002626D01*
X009280Y002933D01*
X009203Y002933D01*
X009127Y002856D01*
X009127Y002703D01*
X009203Y002626D01*
X009127Y002319D02*
X009587Y002319D01*
X009587Y002166D02*
X009587Y002472D01*
X009280Y002166D02*
X009127Y002319D01*
X009203Y002012D02*
X009127Y001935D01*
X009127Y001705D01*
X009587Y001705D01*
X009434Y001705D02*
X009434Y001935D01*
X009357Y002012D01*
X009203Y002012D01*
X009434Y001859D02*
X009587Y002012D01*
X000931Y021717D02*
X000624Y021717D01*
X000777Y021717D02*
X000777Y022177D01*
X000624Y022024D01*
X012658Y025474D02*
X013118Y025474D01*
X012888Y025474D02*
X012888Y025781D01*
X012658Y025781D02*
X013118Y025781D01*
X013118Y025935D02*
X013118Y026241D01*
X013118Y026395D02*
X012658Y026395D01*
X012888Y026472D02*
X013118Y026702D01*
X012888Y026855D02*
X012888Y027162D01*
X012965Y027316D02*
X012965Y027546D01*
X012888Y027623D01*
X012735Y027623D01*
X012658Y027546D01*
X012658Y027316D01*
X013118Y027316D01*
X012965Y027469D02*
X013118Y027623D01*
X013118Y027776D02*
X012658Y027776D01*
X012812Y027930D01*
X012658Y028083D01*
X013118Y028083D01*
X013042Y028237D02*
X012735Y028543D01*
X013042Y028543D01*
X013118Y028467D01*
X013118Y028313D01*
X013042Y028237D01*
X012735Y028237D01*
X012658Y028313D01*
X012658Y028467D01*
X012735Y028543D01*
X012888Y028697D02*
X012658Y028927D01*
X013118Y028927D01*
X012888Y029004D02*
X012888Y028697D01*
X012658Y026702D02*
X012965Y026395D01*
X013118Y025935D02*
X012658Y025935D01*
X017769Y023730D02*
X017769Y023423D01*
X018229Y023423D01*
X018229Y023269D02*
X018076Y023116D01*
X018076Y023193D02*
X018076Y022962D01*
X018229Y022962D02*
X017769Y022962D01*
X017769Y023193D01*
X017846Y023269D01*
X017999Y023269D01*
X018076Y023193D01*
X017999Y023423D02*
X017999Y023576D01*
D13*
X017356Y025541D02*
X017358Y025609D01*
X017364Y025677D01*
X017374Y025744D01*
X017388Y025811D01*
X017405Y025876D01*
X017426Y025941D01*
X017452Y026004D01*
X017480Y026066D01*
X017513Y026125D01*
X017548Y026183D01*
X017587Y026239D01*
X017629Y026292D01*
X017675Y026343D01*
X017723Y026391D01*
X017774Y026437D01*
X017827Y026479D01*
X017883Y026518D01*
X017940Y026553D01*
X018000Y026586D01*
X018062Y026614D01*
X018125Y026640D01*
X018190Y026661D01*
X018255Y026678D01*
X018322Y026692D01*
X018389Y026702D01*
X018457Y026708D01*
X018525Y026710D01*
X018593Y026708D01*
X018661Y026702D01*
X018728Y026692D01*
X018795Y026678D01*
X018860Y026661D01*
X018925Y026640D01*
X018988Y026614D01*
X019050Y026586D01*
X019109Y026553D01*
X019167Y026518D01*
X019223Y026479D01*
X019276Y026437D01*
X019327Y026391D01*
X019375Y026343D01*
X019421Y026292D01*
X019463Y026239D01*
X019502Y026183D01*
X019537Y026125D01*
X019570Y026066D01*
X019598Y026004D01*
X019624Y025941D01*
X019645Y025876D01*
X019662Y025811D01*
X019676Y025744D01*
X019686Y025677D01*
X019692Y025609D01*
X019694Y025541D01*
X019692Y025473D01*
X019686Y025405D01*
X019676Y025338D01*
X019662Y025271D01*
X019645Y025206D01*
X019624Y025141D01*
X019598Y025078D01*
X019570Y025016D01*
X019537Y024956D01*
X019502Y024899D01*
X019463Y024843D01*
X019421Y024790D01*
X019375Y024739D01*
X019327Y024691D01*
X019276Y024645D01*
X019223Y024603D01*
X019167Y024564D01*
X019110Y024529D01*
X019050Y024496D01*
X018988Y024468D01*
X018925Y024442D01*
X018860Y024421D01*
X018795Y024404D01*
X018728Y024390D01*
X018661Y024380D01*
X018593Y024374D01*
X018525Y024372D01*
X018457Y024374D01*
X018389Y024380D01*
X018322Y024390D01*
X018255Y024404D01*
X018190Y024421D01*
X018125Y024442D01*
X018062Y024468D01*
X018000Y024496D01*
X017940Y024529D01*
X017883Y024564D01*
X017827Y024603D01*
X017774Y024645D01*
X017723Y024691D01*
X017675Y024739D01*
X017629Y024790D01*
X017587Y024843D01*
X017548Y024899D01*
X017513Y024956D01*
X017480Y025016D01*
X017452Y025078D01*
X017426Y025141D01*
X017405Y025206D01*
X017388Y025271D01*
X017374Y025338D01*
X017364Y025405D01*
X017358Y025473D01*
X017356Y025541D01*
X017738Y025541D02*
X017740Y025597D01*
X017746Y025652D01*
X017756Y025706D01*
X017769Y025760D01*
X017787Y025813D01*
X017808Y025864D01*
X017832Y025914D01*
X017860Y025962D01*
X017892Y026008D01*
X017926Y026052D01*
X017964Y026093D01*
X018004Y026131D01*
X018047Y026166D01*
X018092Y026198D01*
X018140Y026227D01*
X018189Y026253D01*
X018240Y026275D01*
X018292Y026293D01*
X018346Y026307D01*
X018401Y026318D01*
X018456Y026325D01*
X018511Y026328D01*
X018567Y026327D01*
X018622Y026322D01*
X018677Y026313D01*
X018731Y026301D01*
X018784Y026284D01*
X018836Y026264D01*
X018886Y026240D01*
X018934Y026213D01*
X018981Y026183D01*
X019025Y026149D01*
X019067Y026112D01*
X019105Y026072D01*
X019142Y026030D01*
X019175Y025985D01*
X019204Y025939D01*
X019231Y025890D01*
X019253Y025839D01*
X019273Y025787D01*
X019288Y025733D01*
X019300Y025679D01*
X019308Y025624D01*
X019312Y025569D01*
X019312Y025513D01*
X019308Y025458D01*
X019300Y025403D01*
X019288Y025349D01*
X019273Y025295D01*
X019253Y025243D01*
X019231Y025192D01*
X019204Y025143D01*
X019175Y025097D01*
X019142Y025052D01*
X019105Y025010D01*
X019067Y024970D01*
X019025Y024933D01*
X018981Y024899D01*
X018934Y024869D01*
X018886Y024842D01*
X018836Y024818D01*
X018784Y024798D01*
X018731Y024781D01*
X018677Y024769D01*
X018622Y024760D01*
X018567Y024755D01*
X018511Y024754D01*
X018456Y024757D01*
X018401Y024764D01*
X018346Y024775D01*
X018292Y024789D01*
X018240Y024807D01*
X018189Y024829D01*
X018140Y024855D01*
X018092Y024884D01*
X018047Y024916D01*
X018004Y024951D01*
X017964Y024989D01*
X017926Y025030D01*
X017892Y025074D01*
X017860Y025120D01*
X017832Y025168D01*
X017808Y025218D01*
X017787Y025269D01*
X017769Y025322D01*
X017756Y025376D01*
X017746Y025430D01*
X017740Y025485D01*
X017738Y025541D01*
X018106Y025541D02*
X018108Y025581D01*
X018114Y025622D01*
X018123Y025661D01*
X018137Y025699D01*
X018154Y025736D01*
X018175Y025771D01*
X018198Y025803D01*
X018225Y025834D01*
X018255Y025861D01*
X018287Y025886D01*
X018321Y025907D01*
X018358Y025925D01*
X018396Y025939D01*
X018435Y025950D01*
X018474Y025957D01*
X018515Y025960D01*
X018555Y025959D01*
X018596Y025954D01*
X018635Y025945D01*
X018674Y025933D01*
X018711Y025917D01*
X018746Y025897D01*
X018779Y025874D01*
X018810Y025848D01*
X018839Y025819D01*
X018864Y025787D01*
X018886Y025753D01*
X018905Y025718D01*
X018920Y025680D01*
X018932Y025641D01*
X018940Y025602D01*
X018944Y025561D01*
X018944Y025521D01*
X018940Y025480D01*
X018932Y025441D01*
X018920Y025402D01*
X018905Y025364D01*
X018886Y025329D01*
X018864Y025295D01*
X018839Y025263D01*
X018810Y025234D01*
X018779Y025208D01*
X018746Y025185D01*
X018711Y025165D01*
X018674Y025149D01*
X018635Y025137D01*
X018596Y025128D01*
X018555Y025123D01*
X018515Y025122D01*
X018474Y025125D01*
X018435Y025132D01*
X018396Y025143D01*
X018358Y025157D01*
X018321Y025175D01*
X018287Y025196D01*
X018255Y025221D01*
X018225Y025248D01*
X018198Y025279D01*
X018175Y025311D01*
X018154Y025346D01*
X018137Y025383D01*
X018123Y025421D01*
X018114Y025460D01*
X018108Y025501D01*
X018106Y025541D01*
D14*
X004509Y025856D02*
X004509Y028336D01*
X004509Y028887D01*
X004470Y028887D02*
X002423Y028887D01*
X002423Y028336D01*
X004509Y028336D01*
X004509Y025856D02*
X002423Y025856D01*
X002423Y028336D01*
D15*
X002532Y024242D03*
X002532Y023454D03*
X002532Y022667D03*
X002532Y021879D03*
X002532Y021092D03*
X002532Y020305D03*
X002532Y019517D03*
X002532Y018730D03*
X002532Y017942D03*
X002532Y017155D03*
X002532Y016368D03*
X002532Y015580D03*
X002532Y014793D03*
X002532Y014005D03*
X013052Y014009D03*
X013052Y014797D03*
X013052Y015584D03*
X013052Y016371D03*
X013052Y017159D03*
X013052Y017946D03*
X013052Y018734D03*
X013052Y019521D03*
X013052Y020309D03*
X013052Y021096D03*
X013052Y021883D03*
X013052Y022671D03*
X013052Y023458D03*
X013052Y024246D03*
D16*
X008682Y001501D02*
X002580Y001501D01*
X002580Y008946D01*
X008682Y008946D01*
X008682Y001501D01*
X010060Y001501D02*
X016163Y001501D01*
X016163Y008946D01*
X010060Y008946D01*
X010060Y001501D01*
X012856Y012450D02*
X012781Y012525D01*
X012781Y012825D01*
X012856Y012900D01*
X013006Y012900D01*
X013081Y012825D01*
X013241Y012750D02*
X013391Y012900D01*
X013391Y012450D01*
X013241Y012450D02*
X013541Y012450D01*
X013702Y012525D02*
X013702Y012825D01*
X013777Y012900D01*
X013927Y012900D01*
X014002Y012825D01*
X013702Y012525D01*
X013777Y012450D01*
X013927Y012450D01*
X014002Y012525D01*
X014002Y012825D01*
X013493Y013486D02*
X013493Y029234D01*
X002075Y029234D01*
X002075Y013486D01*
X013493Y013486D01*
X013081Y012525D02*
X013006Y012450D01*
X012856Y012450D01*
X001326Y015178D02*
X001326Y015253D01*
X001251Y015328D01*
X000875Y015328D01*
X000875Y015253D02*
X000875Y015403D01*
X000875Y015563D02*
X000875Y015788D01*
X000951Y015863D01*
X001101Y015863D01*
X001176Y015788D01*
X001176Y015563D01*
X001326Y015563D02*
X000875Y015563D01*
X001101Y016024D02*
X001101Y016324D01*
X001326Y016249D02*
X000875Y016249D01*
X001101Y016024D01*
X001326Y015178D02*
X001251Y015103D01*
D17*
X001046Y016454D02*
X000796Y016704D01*
X000796Y017204D01*
X001046Y017454D01*
X000796Y017704D01*
X000796Y018204D01*
X001046Y018454D01*
X001546Y018454D01*
X001796Y018204D01*
X001796Y017704D01*
X001546Y017454D01*
X001796Y017204D01*
X001796Y016704D01*
X001546Y016454D01*
X001046Y016454D01*
X001046Y017454D02*
X001546Y017454D01*
X001546Y018454D02*
X001796Y018704D01*
X001796Y019204D01*
X001546Y019454D01*
X001796Y019704D01*
X001796Y020204D01*
X001546Y020454D01*
X001796Y020704D01*
X001796Y021204D01*
X001546Y021454D01*
X001046Y021454D01*
X000796Y021204D01*
X000796Y020704D01*
X001046Y020454D01*
X001546Y020454D01*
X001046Y020454D02*
X000796Y020204D01*
X000796Y019704D01*
X001046Y019454D01*
X001546Y019454D01*
X001046Y019454D02*
X000796Y019204D01*
X000796Y018704D01*
X001046Y018454D01*
X008732Y027324D02*
X008482Y027574D01*
X008482Y028074D01*
X008732Y028324D01*
X009232Y028324D01*
X009482Y028074D01*
X009732Y028324D01*
X010232Y028324D01*
X010482Y028074D01*
X010732Y028324D01*
X011232Y028324D01*
X011482Y028074D01*
X011482Y027574D01*
X011232Y027324D01*
X010732Y027324D01*
X010482Y027574D01*
X010232Y027324D01*
X009732Y027324D01*
X009482Y027574D01*
X009232Y027324D01*
X008732Y027324D01*
X009482Y027574D02*
X009482Y028074D01*
X010482Y028074D02*
X010482Y027574D01*
X014668Y021027D02*
X014418Y020777D01*
X014418Y020277D01*
X014668Y020027D01*
X014418Y019777D01*
X014418Y019277D01*
X014668Y019027D01*
X015168Y019027D01*
X015418Y019277D01*
X015418Y019777D01*
X015168Y020027D01*
X014668Y020027D01*
X015168Y020027D02*
X015418Y020277D01*
X015418Y020777D01*
X015168Y021027D01*
X014668Y021027D01*
X014668Y019027D02*
X014418Y018777D01*
X014418Y018277D01*
X014668Y018027D01*
X014418Y017777D01*
X014418Y017277D01*
X014668Y017027D01*
X014418Y016777D01*
X014418Y016277D01*
X014668Y016027D01*
X015168Y016027D01*
X015418Y016277D01*
X015418Y016777D01*
X015168Y017027D01*
X014668Y017027D01*
X015168Y017027D02*
X015418Y017277D01*
X015418Y017777D01*
X015168Y018027D01*
X014668Y018027D01*
X015168Y018027D02*
X015418Y018277D01*
X015418Y018777D01*
X015168Y019027D01*
X016449Y018934D02*
X016699Y018684D01*
X017199Y018684D01*
X017449Y018934D01*
X017699Y018684D01*
X018199Y018684D01*
X018449Y018934D01*
X018699Y018684D01*
X019199Y018684D01*
X019449Y018934D01*
X019449Y019434D01*
X019199Y019684D01*
X018699Y019684D01*
X018449Y019434D01*
X018449Y018934D01*
X018449Y019434D02*
X018199Y019684D01*
X017699Y019684D01*
X017449Y019434D01*
X017449Y018934D01*
X017449Y019434D02*
X017199Y019684D01*
X016699Y019684D01*
X016449Y019434D01*
X016449Y018934D01*
X016695Y018129D02*
X016445Y017879D01*
X016445Y017379D01*
X016695Y017129D01*
X017195Y017129D01*
X017445Y017379D01*
X017695Y017129D01*
X018195Y017129D01*
X018445Y017379D01*
X018445Y017879D01*
X018195Y018129D01*
X017695Y018129D01*
X017445Y017879D01*
X017445Y017379D01*
X017445Y017879D02*
X017195Y018129D01*
X016695Y018129D01*
X018445Y017879D02*
X018695Y018129D01*
X019195Y018129D01*
X019445Y017879D01*
X019695Y018129D01*
X020195Y018129D01*
X020445Y017879D01*
X020445Y017379D01*
X020195Y017129D01*
X019695Y017129D01*
X019445Y017379D01*
X019195Y017129D01*
X018695Y017129D01*
X018445Y017379D01*
X019445Y017379D02*
X019445Y017879D01*
X016637Y013725D02*
X016637Y013425D01*
X016787Y013575D02*
X016487Y013575D01*
X013837Y014025D02*
X013839Y014105D01*
X013845Y014184D01*
X013855Y014263D01*
X013869Y014342D01*
X013886Y014420D01*
X013908Y014497D01*
X013933Y014572D01*
X013963Y014646D01*
X013995Y014719D01*
X014032Y014790D01*
X014072Y014859D01*
X014115Y014926D01*
X014162Y014991D01*
X014211Y015053D01*
X014264Y015113D01*
X014320Y015170D01*
X014378Y015225D01*
X014439Y015276D01*
X014503Y015324D01*
X014569Y015369D01*
X014637Y015411D01*
X014707Y015449D01*
X014779Y015483D01*
X014852Y015514D01*
X014927Y015542D01*
X015004Y015565D01*
X015081Y015585D01*
X015159Y015601D01*
X015238Y015613D01*
X015317Y015621D01*
X015397Y015625D01*
X015477Y015625D01*
X015557Y015621D01*
X015636Y015613D01*
X015715Y015601D01*
X015793Y015585D01*
X015870Y015565D01*
X015947Y015542D01*
X016022Y015514D01*
X016095Y015483D01*
X016167Y015449D01*
X016237Y015411D01*
X016305Y015369D01*
X016371Y015324D01*
X016435Y015276D01*
X016496Y015225D01*
X016554Y015170D01*
X016610Y015113D01*
X016663Y015053D01*
X016712Y014991D01*
X016759Y014926D01*
X016802Y014859D01*
X016842Y014790D01*
X016879Y014719D01*
X016911Y014646D01*
X016941Y014572D01*
X016966Y014497D01*
X016988Y014420D01*
X017005Y014342D01*
X017019Y014263D01*
X017029Y014184D01*
X017035Y014105D01*
X017037Y014025D01*
X017035Y013945D01*
X017029Y013866D01*
X017019Y013787D01*
X017005Y013708D01*
X016988Y013630D01*
X016966Y013553D01*
X016941Y013478D01*
X016911Y013404D01*
X016879Y013331D01*
X016842Y013260D01*
X016802Y013191D01*
X016759Y013124D01*
X016712Y013059D01*
X016663Y012997D01*
X016610Y012937D01*
X016554Y012880D01*
X016496Y012825D01*
X016435Y012774D01*
X016371Y012726D01*
X016305Y012681D01*
X016237Y012639D01*
X016167Y012601D01*
X016095Y012567D01*
X016022Y012536D01*
X015947Y012508D01*
X015870Y012485D01*
X015793Y012465D01*
X015715Y012449D01*
X015636Y012437D01*
X015557Y012429D01*
X015477Y012425D01*
X015397Y012425D01*
X015317Y012429D01*
X015238Y012437D01*
X015159Y012449D01*
X015081Y012465D01*
X015004Y012485D01*
X014927Y012508D01*
X014852Y012536D01*
X014779Y012567D01*
X014707Y012601D01*
X014637Y012639D01*
X014569Y012681D01*
X014503Y012726D01*
X014439Y012774D01*
X014378Y012825D01*
X014320Y012880D01*
X014264Y012937D01*
X014211Y012997D01*
X014162Y013059D01*
X014115Y013124D01*
X014072Y013191D01*
X014032Y013260D01*
X013995Y013331D01*
X013963Y013404D01*
X013933Y013478D01*
X013908Y013553D01*
X013886Y013630D01*
X013869Y013708D01*
X013855Y013787D01*
X013845Y013866D01*
X013839Y013945D01*
X013837Y014025D01*
D18*
X016823Y005894D02*
X017650Y005894D01*
X016823Y005894D02*
X016823Y001681D01*
X020366Y001681D01*
X020366Y003768D01*
X020366Y005618D02*
X020366Y005894D01*
X019539Y005894D01*
X020345Y007490D02*
X021133Y007490D01*
X020739Y007892D01*
X020345Y007490D01*
D19*
X017297Y002655D02*
X017247Y002605D01*
X017200Y002655D02*
X017150Y002655D01*
X017175Y002655D02*
X017175Y002530D01*
X017150Y002505D01*
X017125Y002505D01*
X017100Y002530D01*
X017247Y002505D02*
X017347Y002505D01*
X017297Y002505D02*
X017297Y002655D01*
D20*
X018423Y008147D03*
X018895Y008147D03*
D21*
X018659Y008147D03*
D22*
X019459Y012668D03*
D23*
X018455Y011605D03*
D24*
X020443Y011605D03*
M02*
