%
M48
M72
T01C0.0276
T02C0.0315
T03C0.0320
T04C0.0354
T05C0.0394
T06C0.0400
T07C0.0630
T08C0.1180
T09C0.1260
%
T01
X9864Y7864
X10473Y12798
X6584Y13361
X4627Y16249
X3511Y16425
X3566Y13435
X5373Y20603
X7395Y23025
X6720Y27639
X11021Y24636
X11639Y24636
X12257Y24636
X16270Y20522
X16269Y16365
X18527Y25539
X1601Y22163
T02
X2532Y21879
X2532Y22667
X2532Y23454
X2532Y24242
X2532Y21092
X2532Y20305
X2532Y19517
X2532Y18730
X2532Y17942
X2532Y17155
X2532Y16368
X2532Y15580
X2532Y14793
X2532Y14005
X13052Y14009
X13052Y14797
X13052Y15584
X13052Y16371
X13052Y17159
X13052Y17946
X13052Y18734
X13052Y19521
X13052Y20309
X13052Y21096
X13052Y21883
X13052Y22671
X13052Y23458
X13052Y24246
T03
X14737Y14025
X16137Y14025
T04
X14862Y8257
X14362Y7257
X13862Y8257
X13362Y7257
X12862Y8257
X12362Y7257
X11862Y8257
X11362Y7257
X7381Y8257
X6881Y7257
X6381Y8257
X5881Y7257
X5381Y8257
X4881Y7257
X4381Y8257
X3881Y7257
T05
X4021Y3155
X3021Y3155
X7241Y3155
X8241Y3155
X10501Y3155
X11501Y3155
X14722Y3155
X15722Y3155
T06
X14918Y16527
X14918Y17527
X14918Y18527
X14918Y19527
X14918Y20527
X16949Y19184
X17949Y19184
X18949Y19184
X18945Y17629
X19945Y17629
X17945Y17629
X16945Y17629
X10982Y27824
X9982Y27824
X8982Y27824
X1296Y20954
X1296Y19954
X1296Y18954
X1296Y17954
X1296Y16954
T07
X2580Y5954
X8682Y5954
X10060Y5954
X16163Y5954
T08
X18595Y5894
X18595Y3531
X20445Y4713
T09
X1139Y2686
X3381Y4753
X7881Y4753
X10862Y4753
X15362Y4753
X21139Y2686
X21139Y28686
X1139Y28686
M30
